<svg width="273" height="26" viewBox="0 0 273 26" fill="none" xmlns="http://www.w3.org/2000/svg">
<path fill-rule="evenodd" clip-rule="evenodd" d="M6.27864 1C10.4377 2.46258 6.72424 5.82259 3.64207 5.78306C3.49353 5.54588 3.27072 5.34824 3.08505 5.19012C3.19645 5.032 3.345 4.95295 3.53067 4.87389C3.38213 4.63671 3.08507 4.75528 3.38215 4.55764C3.53068 4.32046 3.60494 4.24142 3.79062 4.0833C3.79062 4.0306 3.79062 3.97788 3.79062 3.92518C3.69159 3.92518 3.60494 3.92518 3.53067 3.92518C3.345 3.80659 3.64207 3.76705 3.64207 3.76705C3.93915 3.37176 4.57044 3.37177 4.83038 3.01601C4.87989 2.75248 4.92942 2.48895 4.97893 2.22542C5.35028 1.59295 5.72162 1.43482 6.27864 1ZM7.46695 7.79904C7.50409 7.00846 7.72689 6.73176 7.87543 6.09929C8.43245 5.82258 8.61813 5.66446 9.50936 5.62493C9.50936 5.67764 9.50936 5.73035 9.50936 5.78306C9.55887 5.78306 9.60837 5.78306 9.65788 5.78306C9.62075 6.53412 9.62075 7.79905 9.91783 8.2734C9.91783 7.56187 9.91783 6.57364 10.2149 6.09929C10.2892 7.68046 10.512 9.41975 10.2149 10.9219C9.88069 11.0405 9.73217 11.159 9.50936 11.3962C7.54122 10.7242 6.9842 8.82682 4.53331 10.2103C3.86489 10.5661 3.5678 10.408 3.53067 11.7125C3.64207 11.9892 3.5678 11.9891 3.53067 12.4635C4.01342 12.6216 4.0877 13.2936 4.49618 13.4517C4.68186 13.4122 4.86753 13.6494 5.0532 13.6099C5.94443 13.8866 6.46432 14.0447 7.39268 14.3214C7.9497 14.2818 8.95234 13.9261 9.50936 13.8866C10.512 14.0842 11.626 14.2819 12.4059 14.4795C12.6658 15.3096 13 15.5468 13 16.8117C12.5544 17.1675 12.6658 17.1675 12.5544 17.7604C11.886 18.1953 9.58362 19.3811 8.32105 18.5115C9.11325 18.3797 9.89307 18.2348 10.6605 18.0767C10.6605 18.024 10.6605 17.9713 10.6605 17.9186C9.28654 17.9186 8.20963 18.3534 7.16986 18.3929C6.68711 18.3929 5.46168 18.0371 5.0532 17.9186C2.23097 16.8513 2.23095 16.456 0.299953 14.4795C0.59703 13.6099 0.151419 14.2818 0.00288028 13.2541C-0.0342543 12.7797 0.299953 11.3567 0.299953 10.1313C0.782703 9.77552 0.819847 9.41974 1.19119 8.90586C1.56254 8.31292 2.30523 8.03621 2.78798 7.52233C4.60757 7.36422 6.09297 7.68045 7.46695 7.79904ZM7.46695 18.3929C7.76403 18.4324 7.72689 18.3929 7.87543 18.5115C7.57835 18.472 7.61549 18.4719 7.46695 18.3929ZM2.49091 24.1246C2.45377 23.8084 2.45376 23.8084 2.34236 23.6503C1.78534 23.927 1.59968 23.2155 0.89412 23.0178C0.89412 22.3063 1.04265 22.1482 1.19119 21.6343C4.94179 21.3971 7.76401 20.4089 11.8117 20.4089C12.1088 20.8832 12.2573 20.9228 12.2573 21.7924C11.1433 22.7411 10.7719 24.2828 9.06374 24.8757C7.87543 25.3105 6.50144 24.4804 5.83302 24.2828C4.71898 24.2301 3.60494 24.1773 2.49091 24.1246Z" fill="white"/>
<path fill-rule="evenodd" clip-rule="evenodd" d="M22.6465 2C22.8356 2.26829 22.8356 2.65158 22.6465 2.91987C22.6465 2.61325 22.6465 2.30662 22.6465 2ZM21.2846 2.30662C21.4864 2.30662 21.6881 2.30662 21.8899 2.30662C22.079 3.18815 22.4573 3.60976 22.7978 4.26133C22.9491 4.26133 23.1004 4.26133 23.2517 4.26133C23.2139 3.76307 22.9113 3.91638 23.3652 3.68642C23.6679 3.91638 24.3866 3.83971 25.3324 3.95469C25.7863 4.03135 27.2617 4.03135 28.4344 3.83972C28.7875 3.89082 29.1406 3.92914 29.4936 3.95469C30.7799 3.72473 32.2931 2.84321 33.3523 3.68642C34.1467 4.52962 34.0332 5.52612 33.9198 6.82926C33.5919 7.13588 33.2514 7.44251 32.8983 7.74913C31.4986 7.44251 29.418 7.55749 27.6778 7.44251C27.2995 8.17073 27.0726 8.43901 27.1104 9.70382C28.5858 10.0871 31.8391 10.9686 31.8391 12.8467C32.2552 13.4982 31.8013 14.9547 31.5743 15.5679C30.9312 17.1394 28.2831 22.8118 26.8077 23.0801C26.5808 23.1951 26.6564 22.7735 26.0511 22.9268C25.5594 23.0801 24.8028 23.7317 24.2732 24C24.1975 23.7317 24.2353 23.8467 24.1218 23.6934C24.1218 23.5912 24.1218 23.489 24.1218 23.3867C26.089 21.8536 27.413 18.5192 27.413 15.108C26.8834 14.8014 26.3159 14.1498 25.7485 13.9198C24.9541 13.5749 24.4244 13.8432 23.6678 13.3066C23.4409 12.9489 23.2013 12.6039 22.9491 12.2718C22.7978 10.0104 24.2353 8.43903 25.7485 7.44251C25.7485 7.39141 25.7485 7.34029 25.7485 7.28919C24.2731 7.21254 22.2303 6.63763 21.5872 5.64111C21.6881 5.64111 21.789 5.64111 21.8899 5.64111C22.4195 6.36934 23.63 6.56098 24.7271 6.67596C24.7271 6.57375 24.7271 6.47155 24.7271 6.36935C22.9491 6.33102 21.2089 5.48781 21.1711 3.68642C20.9819 3.41813 20.9819 2.91986 21.0198 2.45993C21.0702 2.45993 21.1207 2.45993 21.1711 2.45993C21.2468 2.72823 21.1711 2.61324 21.2846 2.76655C21.2846 2.61324 21.2846 2.45993 21.2846 2.30662ZM22.7978 2.91987C22.9869 3.11151 22.9869 3.18815 23.1004 3.5331C22.9995 3.5331 22.8987 3.5331 22.7978 3.5331C22.7978 3.32869 22.7978 3.12428 22.7978 2.91987ZM21.4359 5.3345C21.5872 5.48781 21.5116 5.37282 21.5872 5.64111C21.5368 5.64111 21.4864 5.64111 21.4359 5.64111C21.4359 5.53891 21.4359 5.4367 21.4359 5.3345Z" fill="white"/>
<path fill-rule="evenodd" clip-rule="evenodd" d="M45.5858 0.00288586C46.6824 -0.0355928 47.4765 0.31072 47.8168 1.04181C48.1193 1.61899 47.5143 2.504 47.363 3.15814C47.2118 3.92771 47.4765 6.62121 47.8168 7.39079C50.3124 7.66014 52.5433 5.92859 55.5305 6.46729C55.833 7.27534 55.9842 7.42926 55.9842 8.73754C56.0977 9.04537 55.5683 12.3545 55.3792 13.1241C54.8877 15.3943 54.8877 17.2798 54.0558 19.1652C53.8289 19.7039 53.6399 20.2811 53.3752 20.8583C53.1483 21.397 52.8458 21.8587 52.5811 22.359C52.2786 22.5898 51.9761 23.0516 51.6736 23.2824C51.0686 24.1675 50.6905 25.014 49.2914 25.091C49.1402 25.2064 49.2536 25.1294 48.9889 25.2449C49.0646 24.8601 49.1024 25.014 48.9889 24.6292C48.7243 24.7831 48.2327 25.014 47.968 25.2449C48.3083 25.2449 48.384 25.2448 48.573 25.3603C48.5226 25.3603 48.4722 25.3603 48.4218 25.3603C48.0436 25.7451 46.6824 26.2838 46.0396 25.822C46.4555 25.8605 46.8336 25.822 47.0605 25.6681C47.0101 25.6681 46.9597 25.6681 46.9093 25.6681C46.9093 25.6168 46.9093 25.5655 46.9093 25.5142C46.4555 25.6681 45.4346 25.5527 45.1321 24.7831C45.2329 24.7831 45.3337 24.7831 45.4346 24.7831C45.7371 25.014 46.6068 25.014 46.758 24.937C46.9093 24.7831 46.8336 24.8986 46.9093 24.6292C46.9093 24.5522 46.7958 24.4368 46.6446 24.1675C47.0731 24.1675 47.5143 24.1675 47.968 24.1675C47.968 24.2188 47.968 24.2701 47.968 24.3214C47.7033 24.3983 47.8168 24.3598 47.6655 24.4753C47.8168 24.4753 47.968 24.4753 48.1193 24.4753C48.2705 24.2829 48.4218 24.2059 48.573 24.0135C48.2327 24.0905 48.3839 24.1674 48.1193 24.0135C48.1697 24.0135 48.2201 24.0135 48.2705 24.0135C48.5352 23.7057 49.0646 23.2824 49.2914 23.3979C49.4049 23.5133 49.4805 23.7442 49.5939 23.8596C49.5939 23.757 49.5939 23.6544 49.5939 23.5518C49.6318 23.3979 49.5561 23.244 49.4427 22.8207C50.4258 22.5129 49.6696 22.1666 50.0477 21.2816C50.1611 21.0507 50.6905 20.8583 50.8039 20.5505C50.8039 20.1913 50.8039 19.8322 50.8039 19.4731C51.2577 17.7415 52.2408 15.4328 51.9761 13.4319C51.8249 12.316 52.7324 9.8919 52.0139 9.8919C51.4089 9.43015 49.8964 9.77645 49.2914 9.81493C48.573 9.96885 47.8168 9.6995 47.968 11.1617C47.7411 12.7008 48.5352 15.8561 47.9302 16.895C47.8168 16.7026 47.6655 16.5872 47.5143 16.4717C47.5143 16.7283 47.5143 16.972 47.5143 17.2028C47.7789 17.5876 47.8168 18.3187 47.8168 18.8959C47.7663 18.8959 47.7159 18.8959 47.6655 18.8959C47.6655 18.7933 47.6655 18.6907 47.6655 18.5881C47.6655 18.5496 47.2118 18.2802 47.2118 18.2802C46.9849 17.78 47.6655 17.2798 47.363 16.6257C47.0227 15.7791 46.6068 14.3554 46.3421 13.4319C46.1152 12.7393 46.4177 12.1236 45.8883 11.7773C45.8883 11.9826 45.8883 12.1878 45.8883 12.393C46.1908 12.8163 46.5689 17.2413 46.3421 17.6646C46.2664 15.8561 45.2455 11.5465 44.8296 11.0078C44.5649 11.2002 43.0902 11.7004 42.7499 11.6234C41.9558 11.3156 41.9558 10.8923 42.0315 9.96883C42.8633 9.54557 44.3002 9.43015 44.4137 8.16036C43.733 5.62077 43.128 2.92727 43.544 1.23421C44.0733 0.657027 45.2077 0.310715 45.5858 0.00288586ZM46.9093 2.81182C46.7958 2.35008 47.2118 1.38812 46.6446 1.34964C46.569 1.50355 46.5311 2.08073 46.4933 2.23464C46.6446 2.23464 46.758 2.81182 46.9093 2.81182ZM55.228 10.2767C55.0767 10.546 54.8877 10.7769 54.8121 11.5849C54.9633 12.5469 55.1524 11.5849 55.228 11.5849C55.228 11.5465 55.3792 10.7769 55.3792 10.6999C55.5305 10.4691 55.3414 10.5076 55.228 10.2767ZM47.6655 13.4319C47.6655 13.5345 47.6655 13.6371 47.6655 13.7398C47.7159 13.7398 47.7663 13.7398 47.8168 13.7398C47.8168 13.6371 47.8168 13.5345 47.8168 13.4319C47.7663 13.4319 47.7159 13.4319 47.6655 13.4319ZM48.2705 16.818C48.2705 17.0104 48.3083 17.9724 48.3083 18.2033C48.1949 18.2033 48.0814 17.6646 47.968 17.6646C47.9176 17.4593 47.8672 17.2541 47.8168 17.0489C47.968 17.0489 48.1193 16.818 48.2705 16.818ZM46.4933 17.8185C46.6068 17.9724 46.5311 17.857 46.6446 18.1263C46.5942 18.1263 46.5437 18.1263 46.4933 18.1263C46.4933 18.0237 46.4933 17.9211 46.4933 17.8185ZM46.6446 18.1263C46.8715 18.3187 46.7958 18.2033 46.9093 18.5881C46.8588 18.5881 46.8084 18.5881 46.758 18.5881C46.758 18.5367 46.758 18.4854 46.758 18.4341C46.6446 18.2802 46.7202 18.3957 46.6446 18.1263ZM48.1193 18.2802C48.2705 18.5496 48.2705 18.6265 48.1193 18.8959C48.1193 18.6907 48.1193 18.4854 48.1193 18.2802ZM48.2705 18.8959C48.4596 18.0878 48.3083 18.9344 48.4218 19.1652C48.3713 19.1652 48.3209 19.1652 48.2705 19.1652C48.2705 19.0883 48.2705 18.9985 48.2705 18.8959ZM47.6655 19.1652C47.8168 19.2165 47.968 19.2679 48.1193 19.3192C48.1193 19.3705 48.1193 19.4218 48.1193 19.4731C48.0688 19.4731 48.0184 19.4731 47.968 19.4731C47.8168 19.5885 47.9302 19.55 47.6655 19.627C47.6655 19.4731 47.6655 19.3191 47.6655 19.1652ZM44.2624 24.3214C44.5397 24.424 44.8296 24.5266 45.1321 24.6292C45.1321 24.6805 45.1321 24.7318 45.1321 24.7831C44.5271 24.7446 44.5271 24.7062 44.2624 24.3214ZM44.6783 25.2449C44.8296 25.2449 44.9808 25.2449 45.1321 25.2449C45.2833 25.4244 45.4346 25.6168 45.5858 25.822C45.485 25.822 45.3842 25.822 45.2833 25.822C45.0186 25.5912 44.8674 25.5912 44.6783 25.2449ZM46.9093 19.3192C47.0605 19.3961 46.9471 18.9344 47.0983 18.9728C47.0983 19.0498 47.363 19.5885 47.363 19.627C47.3126 19.627 47.2622 19.627 47.2118 19.627C47.0605 19.7424 47.363 20.2811 47.0983 20.3581C47.0983 20.2041 46.9093 19.4731 46.9093 19.3192Z" fill="white"/>
<path fill-rule="evenodd" clip-rule="evenodd" d="M70.9368 2.00478C72.5616 1.96651 73.7802 2.15788 74.9175 2.57888C74.8092 2.4513 74.7009 2.31097 74.5926 2.15787C74.7009 2.15787 74.8092 2.15787 74.9175 2.15787C75.5268 2.65542 76.5423 2.96161 76.8267 3.80361C77.5985 5.98518 75.6487 7.28647 73.8208 7.24819C73.2928 6.86546 69.6776 4.26289 68.7028 5.14317C68.3778 5.41108 68.0122 5.37281 67.9716 5.90864C68.3372 7.24819 67.931 10.5014 68.2966 11.9175C69.0683 15.0176 70.5306 20.3759 74.1051 20.4907C74.3082 20.1845 75.1207 19.1129 75.405 19.419C75.6487 18.998 75.5675 18.577 75.8924 18.2326C75.8924 18.2836 75.8924 18.3347 75.8924 18.3857C76.0143 18.5388 75.9737 18.5388 76.0549 18.8449C74.8363 20.0697 75.08 21.2944 72.3585 21.2562C72.0336 20.7969 71.3837 20.3376 70.9368 20.0314C70.9368 20.0825 70.9368 20.1335 70.9368 20.1845C71.3837 20.6055 71.5461 21.0265 72.196 21.2562C72.6429 21.5624 73.3334 21.5623 74.1051 21.5241C74.7144 20.7586 75.2019 21.0648 75.405 20.95C75.6081 20.7969 75.6893 20.2228 75.8924 20.0314C75.9737 20.6055 76.1768 20.6055 76.0549 20.95C75.5269 22.634 72.3179 25.0835 69.962 23.476C68.784 23.1315 68.2153 21.9834 67.5654 21.1031C65.8188 18.577 62.7317 10.6928 64.5596 6.52101C65.047 5.33454 65.7375 5.33455 66.7936 4.6839C67.5248 4.22463 68.2153 3.07643 68.8652 2.42579C71.2618 2.38752 72.8053 2.80852 74.5926 3.19125C74.5926 3.14022 74.5926 3.08918 74.5926 3.03815C74.1052 2.80851 73.4552 2.46406 72.8459 2.31096C72.196 2.1196 71.4243 2.31097 70.9368 2.00478ZM75.2425 20.3376C75.3644 20.6055 75.3238 20.4524 75.2425 20.7969C75.1884 20.7969 75.1342 20.7969 75.08 20.7969C75.1342 20.6438 75.1884 20.4907 75.2425 20.3376Z" fill="white"/>
<path fill-rule="evenodd" clip-rule="evenodd" d="M93.447 8.49853C95.7542 8.88576 98.7653 9.31169 98.6871 12.6031C98.1396 13.2614 97.9832 14.1132 97.2793 14.5779C95.9497 15.4685 94.8939 15.817 93.9162 17.0174C92.5084 17.1336 88.3631 17.8306 87.3073 17.0174C88.8715 17.1336 91.4525 17.1336 92.5475 16.243C91.2179 16.4753 88.6369 17.2498 87.3073 16.3979C85.3911 15.1975 87.5419 11.6737 88.9889 11.2478C88.9889 11.3511 88.9889 11.4543 88.9889 11.5576C88.4023 11.9835 88.1285 12.7193 88.0894 13.6873C88.2458 13.7906 88.4023 13.8938 88.5587 13.9971C88.5196 12.4869 89.0671 11.9448 89.6145 11.0929C89.7188 11.0929 89.8231 11.0929 89.9274 11.0929C89.9274 11.1962 89.9274 11.2994 89.9274 11.4027C89.4972 11.7125 88.9106 12.9129 89.1453 13.3775C90.2011 14.0745 92.1955 13.9197 93.2905 13.6873C93.6425 13.1452 93.9944 12.9903 94.0726 12.1384C94.19 11.9448 94.1508 11.5189 93.9162 11.2478C93.7207 10.7057 93.486 10.667 93.1341 10.3185C92.2738 10.3185 89.1453 10.6283 89.1453 10.6283C89.028 10.4734 89.0671 10.4734 88.9889 10.1636C90.5922 9.273 90.1229 9.73765 91.1397 8.65343C91.8436 8.69216 92.8604 8.88576 93.447 8.49853ZM94.3855 14.8877C94.5419 15.0039 94.4246 14.9264 94.6983 15.0426C94.5419 14.9264 94.6592 15.0039 94.3855 14.8877ZM86.6816 16.7076C86.8901 16.7593 87.0987 16.8109 87.3073 16.8625C87.3073 16.9142 87.3073 16.9658 87.3073 17.0174C86.838 16.94 86.9553 16.9787 86.6816 16.7076ZM96.6927 18.1017C97.4357 18.1017 98.1788 18.2565 98.5307 18.6825C98.6872 18.8761 98.9218 19.2633 99 19.9216C98.4916 20.6186 98.4916 21.2381 97.7486 21.7415C97.1229 22.2449 91.6089 23.2517 90.2402 22.9419C89.0279 22.7096 87.933 22.1675 86.838 21.8964C86.9553 21.5479 87.0335 21.4317 86.838 21.122C86.838 21.2252 86.838 21.3285 86.838 21.4318C86.6034 21.5867 86.7207 21.5866 86.4079 21.7415C86.1341 21.5092 86.095 21.6254 85.9386 21.2769C85.9907 21.2769 86.0428 21.2769 86.095 21.2769C86.0428 21.1736 85.9907 21.0703 85.9386 20.9671C85.5475 21.1607 85.2737 21.3543 85 20.6573C85.0521 20.6573 85.1043 20.6573 85.1564 20.6573C85.8603 18.8761 87.8548 20.9283 89.9274 20.3862C90.7095 20.1539 91.7263 19.5731 92.5475 19.302C93.9553 18.8374 95.5587 18.8374 96.6927 18.1017ZM85.7821 20.3862C85.9385 20.5024 85.8212 20.425 86.095 20.5024C85.9386 20.3863 86.0559 20.4637 85.7821 20.3862ZM88.0894 21.2769C88.0894 21.3801 88.0894 21.4834 88.0894 21.5867C88.1415 21.5867 88.1937 21.5867 88.2458 21.5867C88.2458 21.4834 88.2458 21.3801 88.2458 21.2769C88.1937 21.2769 88.1415 21.2769 88.0894 21.2769ZM88.0894 21.7415C88.0894 21.8448 88.0894 21.948 88.0894 22.0513C88.1937 22.0513 88.298 22.0513 88.4023 22.0513C88.4023 21.948 88.4023 21.8448 88.4023 21.7415C88.298 21.7415 88.1937 21.7415 88.0894 21.7415ZM93.5642 3C94.3073 3 95.0503 3.15489 95.4023 3.58083C95.5587 3.77444 95.7933 4.16165 95.8715 4.81992C95.3631 5.51692 95.3632 6.13646 94.6201 6.63985C92.6648 5.82668 87.6201 8.18876 89.6927 5.59437C90.6313 4.4327 92.4302 3.73572 93.5642 3Z" fill="white"/>
<path fill-rule="evenodd" clip-rule="evenodd" d="M109.422 2.5C109.529 2.65389 109.458 2.53847 109.564 2.80778C109.517 2.80778 109.469 2.80778 109.422 2.80778C109.422 2.70518 109.422 2.60259 109.422 2.5ZM113.048 4.92377C114.434 4.96224 116.46 6.30879 116.816 7.50144C117.313 8.19395 117.633 10.3099 117.1 11.2717C116.851 11.6565 115.571 12.3875 115.962 12.9261C116.318 13.9648 117.278 14.7728 117.633 15.8115C118.771 18.8508 116.993 21.2746 115.962 22.8905C115.868 22.8905 115.773 22.8905 115.678 22.8905C115.678 22.8392 115.678 22.7879 115.678 22.7366C115.927 22.5442 115.856 22.6596 115.962 22.3134C115.915 22.3134 115.868 22.3134 115.82 22.3134C113.474 24.4679 109.493 23.4676 108 21.0823C107.111 19.6203 106.898 16.4656 107.04 14.4265C107.609 13.9648 107.716 13.4647 108.569 13.2338C108.569 13.1825 108.569 13.1313 108.569 13.08C108.107 12.9645 108.356 13.1569 108.142 12.7722C108.427 12.7209 108.711 12.6696 108.995 12.6183C109.991 13.4262 110.702 13.1954 110.666 15.196C110.24 15.85 110.275 17.0042 109.671 17.4658C109.671 17.5171 109.671 17.5684 109.671 17.6197C109.647 17.6197 109.612 17.6197 109.564 17.6197C109.564 17.5171 109.564 17.4145 109.564 17.312C109.777 16.9657 109.742 16.7733 109.422 16.5425C109.422 16.5938 109.422 16.6451 109.422 16.6964C109.209 16.9657 109.173 17.1965 109.138 17.6197C109.564 17.8121 109.493 17.5043 109.564 18.3892C108.818 19.5434 110.204 20.6206 110.666 21.0823C111.377 21.1207 112.088 21.1207 112.479 20.7745C113.297 20.5052 113.474 19.6973 114.007 19.1202C114.043 17.7736 113.936 16.4656 113.723 15.5037C113.297 15.2344 112.443 14.7728 112.195 14.2726C112.088 14.0802 112.088 13.9264 112.052 13.5416C112.479 13.003 112.728 12.0797 113.332 11.7334C114.327 11.0794 115.074 11.2717 115.287 9.77131C115.109 9.54047 115.145 9.15575 115.145 8.69408C114.789 8.46324 114.825 8.34782 114.292 8.2324C113.368 7.69379 112.088 9.46353 111.626 10.0406C110.95 10.0791 110.808 10.156 110.24 10.0406C110.287 9.96368 110.334 9.8739 110.382 9.77131C110.334 9.77131 110.287 9.77131 110.24 9.77131C110.097 9.77131 109.706 9.57895 109.28 9.46353C108.64 8.23241 107.04 5.8471 108.285 4.00042C108.462 4.38514 108.249 4.11585 108.569 4.30822C108.604 3.57724 108.747 3.15404 109.28 2.96168C109.28 2.91038 109.28 2.85907 109.28 2.80778C109.327 2.80778 109.375 2.80778 109.422 2.80778C109.351 4.19279 109.6 5.03919 110.524 5.38545C111.128 5.80864 111.413 5.19309 111.768 5.07767C111.863 5.07767 111.958 5.07767 112.052 5.07767C112.052 5.18026 112.052 5.28285 112.052 5.38545C112.799 5.23156 112.159 5.07766 113.048 5.38545C113.048 5.23156 113.048 5.07766 113.048 4.92377ZM109.138 3.69264C109.173 4.03889 109.173 4.00043 109.28 4.15432C109.28 4.00043 109.28 3.84653 109.28 3.69264C109.232 3.69264 109.185 3.69264 109.138 3.69264ZM109.138 4.46209C109.138 5.19307 109.28 5.42392 109.422 5.96253C109.706 6.1549 109.742 6.30879 110.097 6.42421C110.097 6.32162 110.097 6.219 110.097 6.11641C109.458 5.77016 109.529 5.07766 109.138 4.46209ZM108.569 5.53932C108.604 6.15488 108.676 6.30878 108.995 6.57809C108.889 6.30878 108.747 5.77016 108.569 5.53932ZM117.242 18.6585C117.171 19.0432 117.1 19.2356 117.1 19.7357C117.147 19.7357 117.195 19.7357 117.242 19.7357C117.242 19.6844 117.242 19.6331 117.242 19.5818C117.42 19.3125 117.384 18.9278 117.242 18.6585Z" fill="white"/>
<path fill-rule="evenodd" clip-rule="evenodd" d="M148.386 3.511C150.407 3.45057 151.797 3.63186 153.061 4.23611C153.061 4.31667 153.061 4.39725 153.061 4.47782C152.977 4.47782 152.892 4.47782 152.808 4.47782C150.976 5.92802 147.502 5.80716 145.417 7.07609C142.953 8.46586 141.374 10.5807 139.416 12.5143C139.416 12.6755 139.416 12.8366 139.416 12.9977C141.121 13.4811 142.385 14.7501 143.901 15.3543C146.428 16.3815 149.713 16.6233 152.619 17.2879C153.25 18.2547 153.819 18.6173 153.819 20.3696C153.566 20.6717 153.44 21.0343 153.313 21.5177C152.871 21.8198 152.429 22.1219 152.113 22.4845C144.533 22.6657 140.237 21.276 136.447 17.5296C135.373 16.3815 132.972 13.602 134.488 11.5476C135.31 9.07013 142.069 5.6259 144.659 4.47782C145.796 3.87357 147.375 4.17567 148.386 3.511ZM148.386 14.6292C148.26 14.1458 148.323 14.2063 148.133 13.9646C147.186 14.3875 146.87 13.2394 145.67 12.9977C145.67 11.9101 145.922 11.6684 146.112 10.8829C152.555 10.5203 157.356 8.94925 164.242 8.94925C164.747 9.67435 164.937 9.79522 165 11.1246C163.105 12.5748 162.473 14.9313 159.567 15.8377C157.483 16.5024 155.208 15.2335 154.071 14.8709C152.176 14.7904 150.281 14.7098 148.386 14.6292Z" fill="white"/>
<path fill-rule="evenodd" clip-rule="evenodd" d="M183.218 5.57407C183.264 5.67283 183.31 5.77161 183.356 5.87037C183.495 5.96914 183.634 6.0679 183.772 6.16666C185.505 4.75926 187.931 4.75925 188 1.49999C187.677 1.2037 187.353 0.919751 187.03 0.648146C186.752 0.598763 186.487 0.549383 186.233 0.5C184.465 1.68519 183.149 2.38888 183.218 5.57407ZM181.139 11.1667C181.092 11.3148 181.046 11.4506 181 11.5741C181.092 11.6728 181.185 11.7716 181.277 11.8704C182.837 11.6481 182.663 10.9815 184.188 10.8333C184.188 11.1049 184.188 11.3889 184.188 11.6852C184.223 11.6852 184.257 13.7963 184.327 13.7963C184.327 13.4012 184.327 13.0185 184.327 12.6481C184.431 12.9074 184.5 14.7963 184.569 14.9445C184.708 14.6852 184.847 10.6111 184.985 10.3889C185.02 10.3889 184.881 12.8704 184.95 12.8704C184.916 15.2037 184.708 15.2407 184.708 17.5C184.673 17.5 184.639 15.0185 184.569 15.0185C184.523 14.7469 184.477 14.463 184.431 14.1667C183.564 16.3519 184.431 19.5 184.431 22.3148C184.477 22.3148 184.523 22.3148 184.569 22.3148C184.616 21.9198 184.662 21.5247 184.708 21.1296C184.754 21.1296 184.8 21.1296 184.847 21.1296C185.124 22.9815 184.881 24.2407 185.955 25.2037C186.002 25.3025 186.048 25.4012 186.094 25.5C186.186 23.7222 186.267 21.9321 186.337 20.1296C186.383 21.4877 186.429 22.8457 186.475 24.2037C186.752 20.6235 187.03 17.0309 187.307 13.4259C187.584 11.5 187.931 8.12963 187.168 7.61111C186.822 7.31481 186.475 7.31482 185.817 7.31482C183.391 8.83333 183.114 8.87037 181.139 11.1667Z" fill="white"/>
<path fill-rule="evenodd" clip-rule="evenodd" d="M202.403 2.50457C203.903 2.46803 205.028 2.6507 206.078 3.05257C205.978 2.93079 205.878 2.79683 205.778 2.6507C205.878 2.6507 205.978 2.6507 206.078 2.6507C206.64 3.12563 207.578 3.4179 207.84 4.22163C208.552 6.30404 206.753 7.54617 205.065 7.50964C204.578 7.14431 201.241 4.66003 200.341 5.5003C200.041 5.75604 199.704 5.7195 199.666 6.23097C200.004 7.50964 199.629 10.615 199.966 11.9667C200.678 14.9259 202.028 20.0406 205.328 20.1502C205.515 19.858 206.265 18.835 206.528 19.1273C206.753 18.7254 206.678 18.3235 206.978 17.9947C206.978 18.0435 206.978 18.0922 206.978 18.1409C207.09 18.287 207.053 18.287 207.128 18.5793C206.003 19.7483 206.228 20.9174 203.716 20.8809C203.416 20.4425 202.816 20.0041 202.403 19.7118C202.403 19.7605 202.403 19.8092 202.403 19.8579C202.816 20.2598 202.966 20.6617 203.566 20.8809C203.978 21.1732 204.615 21.1731 205.328 21.1366C205.89 20.4059 206.34 20.6982 206.528 20.5886C206.715 20.4425 206.79 19.8945 206.978 19.7118C207.053 20.2598 207.24 20.2598 207.128 20.5886C206.64 22.1961 203.678 24.5342 201.503 22.9998C200.416 22.671 199.891 21.575 199.291 20.7347C197.679 18.3235 194.829 10.7977 196.517 6.81551C196.966 5.68297 197.604 5.68298 198.579 5.06191C199.254 4.62351 199.891 3.52751 200.491 2.90644C202.703 2.8699 204.128 3.27177 205.778 3.63711C205.778 3.58839 205.778 3.53967 205.778 3.49096C205.328 3.27176 204.728 2.94296 204.165 2.79683C203.566 2.61416 202.853 2.79683 202.403 2.50457ZM206.378 20.0041C206.49 20.2598 206.453 20.1137 206.378 20.4425C206.328 20.4425 206.278 20.4425 206.228 20.4425C206.278 20.2964 206.328 20.1502 206.378 20.0041Z" fill="white"/>
<path fill-rule="evenodd" clip-rule="evenodd" d="M221.238 12.3322C221.29 12.5953 221.342 12.8584 221.394 13.1215C223.739 14.4237 228.039 14.4632 228 18.2515C227.843 18.4094 227.922 18.291 227.843 18.5672C227.062 18.804 226.293 19.0539 225.537 19.317C223.583 20.6193 223.427 23.4605 220.143 23.5C218.775 22.4345 217.134 22.3951 216.313 20.7376C216.417 20.7376 216.521 20.7376 216.625 20.7376C216.977 21.2112 217.603 21.6848 218.15 21.961C217.798 21.4085 217.134 20.9744 216.782 20.422C216.156 19.4354 216.039 16.9493 216.156 15.7654C216.547 15.5287 216.704 15.4497 217.407 15.4497C218.111 16.8704 218.658 19.2776 220.769 19.317C220.769 19.2644 220.769 19.2118 220.769 19.1592C220.221 18.9224 219.831 18.7251 219.557 18.2515C219.635 18.2515 219.726 18.2515 219.831 18.2515C220.417 18.804 222.332 19.317 222.762 19.0013C223.309 18.804 223.27 18.4488 223.857 18.2515C223.857 18.1989 223.857 18.1463 223.857 18.0937C223.348 17.8569 223.427 17.4228 223.075 17.1466C221.394 15.9233 218.932 15.7654 219.557 12.6479C219.635 12.6479 219.726 12.6479 219.831 12.6479C219.909 13.2004 220.026 13.4372 220.143 13.9107C220.195 13.9107 220.247 13.9107 220.3 13.9107C220.3 13.7528 220.3 13.595 220.3 13.4371C220.065 13.0425 219.791 12.3322 219.674 11.8981C219.492 11.8981 219.296 11.8981 219.088 11.8981C218.267 10.7537 216.938 10.7537 216.938 8.78061C216.274 7.63621 216.938 7.08374 217.524 6.45235C216.078 6.84697 217.173 6.17611 216.625 7.55728C216.469 7.55728 216.313 7.55728 216.156 7.55728C216.352 4.32139 221.394 1.00656 224.599 3.21644C227.531 5.18955 227.452 10.8326 223.974 12.1744C223.062 12.227 222.15 12.2796 221.238 12.3322ZM221.238 5.22902C220.808 5.58418 219.87 5.86041 219.557 5.82095C219.362 6.64966 218.971 6.49181 218.775 7.24159C219.283 7.59675 219.362 8.26761 219.831 8.62277C220.261 8.93846 220.925 8.93846 221.707 8.93846C222.41 8.34653 223.622 8.03083 223.231 6.76804C223.036 6.13665 223.036 5.89988 222.449 5.6631C222.137 5.38687 221.785 5.26848 221.238 5.22902ZM216 7.83352C216.195 8.14922 216.195 8.66222 216 8.93846C216 8.57015 216 8.20184 216 7.83352ZM221.98 13.9107C222.254 14.108 222.606 14.2264 222.918 14.3448C222.684 14.0685 222.449 13.9896 221.98 13.9107Z" fill="white"/>
<path fill-rule="evenodd" clip-rule="evenodd" d="M249.844 8.93784C249.062 8.93784 248.294 8.93784 247.538 8.93784C247.304 8.46428 247.226 8.50375 246.757 8.03018C247.147 7.7934 246.991 7.95125 247.069 7.39875C247.017 7.39875 246.965 7.39875 246.913 7.39875C246.913 7.34614 246.913 7.29352 246.913 7.2409C245.233 7.20144 244.295 6.72787 243.083 6.45162C241.52 6.13591 239.293 7.59607 238.16 8.18803C238.082 8.89838 237.808 9.17462 237.691 9.88497C238.746 10.0428 239.527 10.3585 240.465 10.2007C242.224 9.88498 243.083 9.37194 244.92 9.72712C245.037 9.88497 244.92 9.72712 245.076 9.88497C245.311 11.7003 245.741 12.8053 245.545 14.3839C245.389 15.4099 244.334 17.4226 244.92 18.4092C244.998 17.8567 245.115 16.0019 245.233 15.5283C245.285 15.5283 245.337 15.5283 245.389 15.5283C245.389 16.0019 245.389 18.0935 245.389 18.567C244.92 19.2379 245.233 20.6586 244.764 21.3295C244.803 20.6981 244.881 19.5931 244.607 19.159C244.607 20.2245 244.646 22.9475 243.552 23.3816C243.396 23.5395 243.552 23.3816 243.396 23.5C243.357 22.8686 243.435 20.9743 243.201 20.1061C243.253 20.1061 243.318 20.1061 243.396 20.1061C243.357 19.3168 243.279 18.5276 243.083 17.6199C243.031 17.6199 242.979 17.6199 242.927 17.6199C242.927 17.7778 242.927 17.9356 242.927 18.0934C243.122 18.4486 242.966 19.2774 242.927 20.1061C242.979 20.1061 243.018 20.1061 243.044 20.1061C243.018 21.1322 242.979 22.1714 242.927 23.2237C242.875 23.2237 242.823 23.2237 242.771 23.2237C242.771 23.1711 242.771 23.1185 242.771 23.0659C242.341 22.395 242.497 20.264 242.614 19.9483C241.638 19.5142 242.536 15.1731 242.146 14.0681C240.348 13.4367 239.645 12.8842 238.003 12.0555C237.339 11.7003 236.479 11.9371 236.167 11.2662C236.167 11.0031 236.167 10.74 236.167 10.4769C235.659 9.64819 236.44 7.99071 236.792 7.39875C237.105 6.84626 237.183 6.33323 237.535 5.85967C238.394 4.67575 242.146 1.9922 244.607 2.58416C247.226 3.21558 248.202 4.08379 250 5.85967C249.948 6.88573 249.896 7.91178 249.844 8.93784ZM243.083 19.7904C243.083 19.8957 243.07 20.0009 243.044 20.1061C243.096 20.1061 243.149 20.1061 243.201 20.1061C243.175 19.9746 243.136 19.8693 243.083 19.7904Z" fill="white"/>
<path fill-rule="evenodd" clip-rule="evenodd" d="M266.678 5.5C267.464 5.5 267.95 5.61253 268.436 5.80008C268.736 6.28771 268.96 6.51277 269.035 7.30049C268.885 7.48804 268.811 7.71311 268.736 8.0132C267.389 8.83842 265.444 9.47611 263.312 9.47611C263.312 9.40109 263.312 9.31356 263.312 9.21353C263.162 9.02598 263.162 8.83843 263.162 8.46333C263.611 8.21326 264.047 7.96319 264.471 7.71312C264.471 7.56308 264.471 7.42553 264.471 7.30049C264.733 7.03792 265.257 7.22548 265.369 7.15046C265.968 6.62532 266.155 6.17519 266.678 5.5ZM265.369 11.1266C267.464 11.089 268.848 11.3141 270.494 11.4266C271.167 12.852 272.738 13.0771 273 15.1027C272.476 15.9654 272.589 17.2407 271.99 18.0285C271.466 18.7036 270.569 18.8537 269.933 19.3788C269.783 19.4538 269.783 19.8665 269.633 19.9415C267.8 20.9918 266.267 20.3916 264.92 19.5289C264.322 19.1163 263.723 19.0412 263.461 18.3285C263.125 17.9159 263.125 17.0907 263.162 16.2655C263.312 16.1654 263.461 16.0654 263.611 15.9654C263.611 16.0654 263.611 16.1654 263.611 16.2655C263.424 16.4905 263.387 16.6781 263.312 17.0157C264.135 17.6534 264.06 18.5161 265.519 18.6286C265.519 18.5786 265.519 18.5286 265.519 18.4786C264.546 17.991 263.835 17.5033 264.322 16.2655C264.372 16.2655 264.421 16.2655 264.471 16.2655C264.471 16.7656 264.521 17.1657 264.621 17.4658C264.883 17.5783 265.182 17.6909 265.369 17.8784C267.165 17.9534 268.81 17.1657 268.885 15.5528C269.072 15.2527 268.698 13.9773 268.287 13.7523C267.726 14.0899 264.92 13.2646 263.461 13.9023C262.676 14.2399 261.292 15.2902 260.805 15.9654C260.394 16.528 260.506 17.0157 259.796 17.3158C259.833 16.9782 259.908 17.1282 259.796 16.8656C259.796 16.9156 259.796 16.9657 259.796 17.0157C259.197 17.6158 259.272 18.6661 258.748 19.3788C258.636 19.1913 258.636 19.1913 258.449 19.0787C258.411 19.6039 258.524 19.4538 258.15 19.6789C258.15 19.3788 258.15 19.0788 258.15 18.7787C258.636 18.0285 258.599 17.2783 259.197 16.7156C259.047 16.303 258.973 16.4155 258.898 15.8153C259.347 15.5153 259.459 15.2527 259.796 14.8026C260.357 14.0524 261.554 13.3397 262.414 12.8895C262.414 12.8395 262.414 12.7895 262.414 12.7395C262.264 12.7395 262.115 12.7395 261.965 12.7395C261.666 13.0021 261.254 13.1896 260.805 13.3397C260.805 13.2897 260.805 13.2396 260.805 13.1896C260.855 13.1896 260.905 13.1896 260.955 13.1896C261.591 12.5519 262.863 11.9143 263.761 11.5392C264.284 11.3516 264.92 11.4266 265.369 11.1266ZM260.506 13.3397C260.606 13.3397 260.706 13.3397 260.805 13.3397C260.805 13.3897 260.805 13.4397 260.805 13.4897C260.544 13.3772 260.656 13.4522 260.506 13.3397ZM260.057 13.6022C260.157 13.6022 260.257 13.6022 260.357 13.6022C260.357 13.6523 260.357 13.7023 260.357 13.7523C260.095 13.6773 260.207 13.7523 260.057 13.6022ZM260.805 15.1027C260.506 15.5903 260.207 16.1529 259.908 16.7156C259.958 16.7156 260.007 16.7156 260.057 16.7156C260.431 16.1529 260.993 15.7778 261.254 15.1027C261.105 15.1027 260.955 15.1027 260.805 15.1027ZM264.621 15.2527C264.721 15.2527 264.82 15.2527 264.92 15.2527C264.92 15.3027 264.92 15.3527 264.92 15.4027C264.658 15.2902 264.771 15.3652 264.621 15.2527ZM258.598 16.4155C258.698 16.4155 258.798 16.4155 258.898 16.4155C258.898 16.4655 258.898 16.5155 258.898 16.5655C258.848 16.5655 258.798 16.5655 258.748 16.5655C258.748 16.6156 258.748 16.6656 258.748 16.7156C258.636 16.5656 258.711 16.6781 258.598 16.4155ZM258.299 16.7156C258.449 17.0157 258.262 17.1282 258.15 17.6158C258.1 17.6158 258.05 17.6158 258 17.6158C258.075 17.0532 258.112 17.0532 258.299 16.7156ZM259.646 17.4658C259.758 17.6158 259.721 17.5783 259.796 17.8784C259.746 17.8784 259.696 17.8784 259.646 17.8784C259.646 17.7284 259.646 17.5908 259.646 17.4658Z" fill="white"/>
</svg>
